<svg enable-background="new 0 0 256 256" viewBox="0 0 256 256" xmlns="http://www.w3.org/2000/svg"><path d="m204.946 54.33c-.974 11.564-13.025 13.389-13.025 13.389 10.347.487 12.925 14.059 12.925 14.059.221-9.677 13.321-14.202 13.321-14.202-9.813-.587-13.221-13.246-13.221-13.246z" fill="#d5dc57"/><path d="m218.258 66.079c-8.604-.516-11.832-12.025-11.863-12.142-.19-.702-.846-1.162-1.584-1.102-.725.066-1.298.642-1.359 1.367-.859 10.216-11.313 11.964-11.754 12.032-.763.116-1.313.791-1.273 1.561.04.771.657 1.385 1.428 1.421 9.027.426 11.498 12.719 11.521 12.843.138.712.76 1.218 1.473 1.218.042 0 .084-.002.126-.005.764-.064 1.357-.693 1.375-1.46.194-8.509 12.191-12.777 12.313-12.819.676-.234 1.092-.914.994-1.622s-.683-1.249-1.397-1.292zm-13.567 10.346c-1.356-3.131-3.708-6.908-7.586-8.877 2.931-1.404 6.408-3.913 8.201-8.273 1.551 3.071 4.2 6.881 8.334 8.723-3.006 1.64-6.921 4.405-8.949 8.427z" fill="#3a312a"/><path d="m183.248 71.31c-.689 8.179-9.212 9.47-9.212 9.47 7.318.344 9.142 9.944 9.142 9.944.156-6.844 9.422-10.045 9.422-10.045-6.942-.415-9.352-9.369-9.352-9.369z" fill="#d5dc57"/><path d="m192.689 79.183c-5.767-.346-7.972-8.187-7.993-8.266-.19-.702-.863-1.164-1.582-1.102-.726.065-1.3.643-1.361 1.368-.579 6.871-7.646 8.066-7.942 8.113-.763.116-1.313.791-1.273 1.561.04.771.657 1.385 1.428 1.421 6.035.284 7.724 8.645 7.739 8.727.136.713.759 1.22 1.473 1.22.041 0 .083-.002.125-.005.765-.063 1.358-.693 1.376-1.461.13-5.709 8.331-8.633 8.411-8.661.677-.233 1.094-.913.997-1.622-.099-.709-.684-1.25-1.398-1.293zm-9.585 6.794c-.924-1.885-2.34-3.947-4.447-5.279 1.855-1.041 3.697-2.63 4.871-4.917 1.057 1.874 2.653 3.955 4.941 5.225-1.849 1.099-3.989 2.738-5.365 4.971z" fill="#3a312a"/><path d="m183.21 44.653c-.657 8.182-9.175 9.507-9.175 9.507 7.319.316 9.181 9.908 9.181 9.908.129-6.845 9.383-10.082 9.383-10.082-6.944-.389-9.389-9.333-9.389-9.333z" fill="#d5dc57"/><path d="m192.682 52.487c-5.741-.32-7.983-8.083-8.025-8.231-.192-.702-.874-1.178-1.586-1.097-.726.067-1.297.646-1.355 1.373-.552 6.873-7.615 8.097-7.911 8.145-.762.119-1.31.796-1.268 1.565.043.771.663 1.382 1.434 1.416 6.036.261 7.757 8.614 7.772 8.696.138.71.76 1.214 1.472 1.214.043 0 .087-.002.13-.006.765-.065 1.356-.698 1.371-1.466.108-5.71 8.298-8.667 8.378-8.695.676-.236 1.09-.917.99-1.626-.102-.709-.688-1.248-1.402-1.288zm-9.559 6.833c-.931-1.882-2.355-3.938-4.467-5.263 1.852-1.048 3.687-2.644 4.852-4.936 1.064 1.87 2.669 3.944 4.961 5.205-1.846 1.109-3.978 2.757-5.346 4.994z" fill="#3a312a"/><path d="m128 81c-15.594 0-29.785 5.989-40.413 15.785l-9.268 10.85c-6.297 9.456-9.974 20.807-9.974 33.021 0 32.947 26.708 59.656 59.656 59.656 32.947 0 59.655-26.709 59.655-59.656s-26.709-59.656-59.656-59.656z" fill="#d6df58"/><path d="m128 79.5c-15.394 0-30.108 5.747-41.43 16.183-.609.562-.647 1.51-.086 2.119.56.61 1.511.648 2.119.086 10.766-9.923 24.757-15.388 39.397-15.388 32.067 0 58.155 26.088 58.155 58.155s-26.088 58.156-58.155 58.156-58.155-26.088-58.155-58.155c0-11.507 3.362-22.638 9.722-32.189.46-.689.273-1.62-.417-2.079-.686-.461-1.621-.274-2.079.417-6.689 10.045-10.226 21.751-10.226 33.852 0 33.721 27.435 61.155 61.155 61.155s61.155-27.435 61.155-61.155-27.434-61.157-61.155-61.157z" fill="#3a312a"/><path d="m217.895 130.381c-5.396 0-9.771 4.375-9.771 9.771 0 44.18-35.944 80.124-80.124 80.124-44.181 0-80.124-35.944-80.124-80.124 0-37.42 25.789-68.923 60.524-77.69l-12.559 19.729c-2.898 4.552-1.557 10.592 2.995 13.49 1.627 1.036 3.443 1.53 5.238 1.53 3.229 0 6.389-1.6 8.252-4.525l22.677-35.622c1.711-1.76 2.768-4.158 2.768-6.806 0-.076-.01-.149-.011-.224.052-3.282-1.54-6.514-4.513-8.406l-37.568-23.917c-4.553-2.899-10.593-1.557-13.49 2.995-2.898 4.552-1.557 10.592 2.995 13.49l15.75 10.026c-41.846 11.823-72.601 50.352-72.601 95.931 0 54.957 44.71 99.667 99.667 99.667 54.956 0 99.667-44.71 99.667-99.667 0-5.397-4.375-9.772-9.772-9.772z" fill="#89c4db"/><g fill="#3a312a"><path d="m217.896 128.882c-6.215 0-11.271 5.056-11.271 11.271 0 43.354-35.271 78.625-78.624 78.625s-78.624-35.271-78.624-78.625c0-34.764 22.695-65.147 55.658-75.195l-10.46 16.427c-3.337 5.243-1.786 12.224 3.456 15.561 1.812 1.155 3.902 1.766 6.044 1.766 3.878 0 7.435-1.951 9.517-5.22l22.597-35.497c1.989-2.104 3.083-4.845 3.083-7.737 0-.078-.004-.156-.012-.2.063-3.956-1.885-7.581-5.207-9.695l-37.569-23.918c-2.541-1.617-5.56-2.15-8.497-1.495-2.939.652-5.447 2.411-7.064 4.95-1.616 2.54-2.147 5.557-1.494 8.496.652 2.938 2.41 5.447 4.949 7.064l12.987 8.268c-41.692 13.272-70.532 52.454-70.532 96.424 0 55.783 45.384 101.167 101.167 101.167s101.167-45.384 101.167-101.167c0-6.214-5.057-11.27-11.271-11.27zm-89.896 109.437c-54.13 0-98.167-44.037-98.167-98.167 0-43.737 29.405-82.592 71.51-94.486.568-.16.99-.641 1.076-1.226s-.18-1.166-.679-1.483l-15.751-10.027c-1.863-1.186-3.153-3.027-3.633-5.184-.479-2.157-.089-4.371 1.098-6.234 1.186-1.864 3.027-3.154 5.184-3.633.602-.134 1.208-.2 1.81-.2 1.556 0 3.082.441 4.426 1.298l37.568 23.916c2.438 1.551 3.864 4.211 3.819 7.18 0 .023.009.161.011.185 0 2.16-.832 4.206-2.344 5.761-.071.073-.135.154-.19.24l-22.678 35.621c-1.526 2.399-4.138 3.831-6.985 3.831-1.569 0-3.103-.448-4.433-1.296-3.848-2.449-4.985-7.571-2.536-11.419l12.56-19.728c.33-.519.311-1.186-.05-1.684-.36-.498-.987-.729-1.583-.576-36.303 9.163-61.657 41.708-61.657 79.144 0 45.008 36.616 81.625 81.624 81.625s81.624-36.617 81.624-81.625c0-4.561 3.711-8.271 8.271-8.271s8.271 3.71 8.271 8.271c.001 54.13-44.036 98.167-98.166 98.167z"/><path d="m93.792 148.251c.698-.686 1.304-1.24 1.821-1.664.517-.423 1.542-1.164 3.073-2.223 2.578-1.818 4.357-3.487 5.335-5.006.976-1.519 1.466-3.113 1.466-4.783 0-1.569-.427-2.985-1.281-4.249-.852-1.264-2.023-2.202-3.512-2.812-1.487-.61-3.571-.916-6.248-.916-2.566 0-4.574.321-6.025.962s-2.574 1.563-3.371 2.765-1.346 2.874-1.645 5.016l7.621.616c.212-1.544.627-2.622 1.243-3.231.616-.611 1.411-.916 2.383-.916.934 0 1.708.296 2.326.888.616.592.923 1.305.923 2.139 0 .773-.311 1.588-.934 2.448-.622.859-2.048 2.117-4.278 3.773-3.649 2.703-6.137 5.047-7.464 7.034-1.327 1.986-2.12 4.106-2.383 6.361h22.83v-6.202z"/><path d="m130.547 143.431v-16.833h-6.633l-13.861 16.477v6.259h13.861v5.119h6.633v-5.119h3.436v-5.903zm-6.633 0h-7.325l7.325-8.619z"/><path d="m143.56 126.598-6.841 28.322h3.844l6.88-28.322z"/><path d="m150.944 127.065v6.427h13.525c-2.778 3.45-4.807 6.688-6.09 9.715-1.283 3.026-2.223 6.775-2.82 11.246h7.583c.25-3.214.736-5.997 1.457-8.351.911-3.026 2.149-5.772 3.718-8.239 1.295-2.03 2.909-3.917 4.839-5.66v-5.138z"/></g><path d="m128 82.5c-2.63 0-5.21.19-7.75.53l-.68 1.07c21.18 5.08 37.9 21.79 42.99 42.97h10.6v5.13c-1.93 1.75-3.55 3.63-4.84 5.66-1.57 2.47-2.81 5.22-3.72 8.24-.72 2.36-1.21 5.14-1.46 8.35h-.63c-5.36 21.93-23.18 39.03-45.51 43.31 3.56.69 7.24 1.05 11 1.05 32.07 0 58.16-26.09 58.16-58.15 0-32.07-26.09-58.16-58.16-58.16z" fill="#b9c239"/></svg>